# xmcd
#
# Track frame offsets: 
#        150
#        16441
#        36262
#        54483
#        73000
#        95386
#
# Disc length: 2096 seconds
#
# Revision: 0
# Processed by: cddbd v1.5.2PL0 Copyright (c) Steve Scherf et al.
# Submitted via: ExactAudioCopy v1.0b1
#
DISCID=4a082e06
DTITLE=Stanislaw Soyka - Matko, która nas znasz...
DYEAR=1982
DGENRE=Vocal
TTITLE0=Godzien Jestes
TTITLE1=Krolowej Anielskiej Spiewamy
TTITLE2=Mosty
TTITLE3=Dziekuje Bogu
TTITLE4=Chrystusie
TTITLE5=Matko Ktora Nas Znasz
EXTD=
EXTT0=
EXTT1=
EXTT2=
EXTT3=
EXTT4=
EXTT5=
PLAYORDER=
